<svg width="164" height="48" viewBox="0 0 164 48" fill="none" xmlns="http://www.w3.org/2000/svg">
<path d="M95.36 21.44H121.6V25.68H95.36V21.44ZM91.64 34.12H125.16V38.4H91.64V34.12ZM105.72 23.96H111.04V35.32H105.72V23.96ZM95.36 8.32H100.72V23.28H95.36V8.32ZM128.397 23.28H161.877V27.52H128.397V23.28ZM142.437 18.88H147.757V24.52H142.437V18.88ZM132.677 6.36H137.917V9.52H152.357V6.36H157.637V20.4H132.677V6.36ZM137.917 13.48V16.24H152.357V13.48H137.917ZM132.277 29.84H157.877V42.16H132.277V29.84ZM152.677 34H137.517V37.96H152.677V34Z" fill="black"/>
<path d="M1.20625 18.304H14.3103V19.408H1.20625V18.304ZM7.06225 14.848H8.39025V18.624H7.06225V14.848ZM2.74225 7.808H4.05425V10.384H11.4303V7.808H12.7423V15.2H2.74225V7.808ZM4.05425 11.456V14.112H11.4303V11.456H4.05425ZM25.701 6.768H27.045V21.264H25.701V6.768ZM26.725 12.48H29.413V13.6H26.725V12.48ZM16.533 16.544H17.669C20.341 16.544 22.213 16.448 24.373 16.048L24.517 17.168C22.293 17.584 20.389 17.664 17.669 17.664H16.533V16.544ZM16.533 8.176H23.253V9.264H17.845V17.04H16.533V8.176ZM35.8638 16.576H36.9678C39.6558 16.576 41.3838 16.512 43.3998 16.128L43.5438 17.216C41.4638 17.6 39.7198 17.696 36.9678 17.696H35.8638V16.576ZM35.8638 8.16H42.4398V9.248H37.1758V16.992H35.8638V8.16ZM45.7358 6.784H47.0638V21.28H45.7358V6.784ZM41.5918 12.016H46.2798V13.12H41.5918V12.016ZM65.1145 12.544H67.7865V13.664H65.1145V12.544ZM64.1385 6.768H65.4825V21.248H64.1385V6.768ZM54.9225 8.192H56.2505V17.152H54.9225V8.192ZM54.9225 16.464H56.0745C58.2185 16.464 60.4105 16.32 62.7945 15.824L62.9545 16.928C60.4905 17.44 58.2665 17.584 56.0745 17.584H54.9225V16.464ZM69.0653 14.384H82.1373V15.472H69.0653V14.384ZM70.7613 19.84H80.6973V20.928H70.7613V19.84ZM70.7613 16.736H72.0893V20.176H70.7613V16.736ZM75.6093 7.264C78.6973 7.264 80.6973 8.352 80.6973 10.16C80.6973 11.952 78.6973 13.04 75.6093 13.04C72.5052 13.04 70.5213 11.952 70.5213 10.16C70.5213 8.352 72.5052 7.264 75.6093 7.264ZM75.6093 8.352C73.3373 8.352 71.8813 9.024 71.8813 10.16C71.8813 11.296 73.3373 11.968 75.6093 11.968C77.8813 11.968 79.3373 11.296 79.3373 10.16C79.3373 9.024 77.8813 8.352 75.6093 8.352ZM9.24225 27.032H10.3303V29.624C10.3303 32.824 8.60225 35.944 6.31425 37.16L5.49825 36.104C7.59425 35.048 9.24225 32.264 9.24225 29.624V27.032ZM9.48225 27.032H10.5543V29.624C10.5543 32.168 12.1703 34.808 14.2183 35.832L13.4023 36.888C11.1623 35.688 9.48225 32.728 9.48225 29.624V27.032ZM15.4823 25.784H16.8263V40.248H15.4823V25.784ZM16.5063 31.64H19.1943V32.76H16.5063V31.64ZM24.537 34.456H25.881V36.84H24.537V34.456ZM30.873 25.784H32.201V40.248H30.873V25.784ZM20.681 37.496L20.505 36.392C23.241 36.376 26.841 36.344 29.961 35.944L30.057 36.92C26.841 37.464 23.353 37.496 20.681 37.496ZM20.809 27.544H29.593V28.616H20.809V27.544ZM25.193 29.448C27.273 29.448 28.681 30.504 28.681 32.12C28.681 33.752 27.273 34.792 25.193 34.792C23.129 34.792 21.721 33.752 21.721 32.12C21.721 30.504 23.129 29.448 25.193 29.448ZM25.193 30.472C23.897 30.472 22.985 31.128 22.985 32.12C22.985 33.112 23.897 33.768 25.193 33.768C26.505 33.768 27.417 33.112 27.417 32.12C27.417 31.128 26.505 30.472 25.193 30.472ZM24.537 25.784H25.865V28.136H24.537V25.784ZM35.1278 32.504H48.2478V33.512H35.1278V32.504ZM36.6798 34.68H46.5998V37.768H38.0398V39.464H36.7278V36.856H45.3038V35.624H36.6798V34.68ZM36.7278 39.112H47.0638V40.072H36.7278V39.112ZM36.7918 26.2H46.5518V29.208H38.1358V30.776H36.8238V28.312H45.2558V27.144H36.7918V26.2ZM36.8238 30.456H46.8238V31.416H36.8238V30.456ZM59.0825 26.456C61.2425 26.456 62.7785 27.656 62.7785 29.432C62.7785 31.192 61.2425 32.424 59.0825 32.424C56.9385 32.424 55.4025 31.192 55.4025 29.432C55.4025 27.656 56.9385 26.456 59.0825 26.456ZM59.0825 27.56C57.6745 27.56 56.6665 28.328 56.6665 29.432C56.6665 30.552 57.6745 31.304 59.0825 31.304C60.4905 31.304 61.4985 30.552 61.4985 29.432C61.4985 28.328 60.4905 27.56 59.0825 27.56ZM58.4905 34.024H59.8185V39.8H58.4905V34.024ZM64.8905 25.784H66.2025V40.264H64.8905V25.784ZM54.5065 34.744L54.3305 33.624C57.0185 33.624 60.6825 33.592 63.8665 33.112L63.9625 34.104C60.6985 34.696 57.1465 34.744 54.5065 34.744ZM78.9693 25.8H80.2973V36.648H78.9693V25.8ZM79.8813 30.536H82.4413V31.656H79.8813V30.536ZM69.1133 27.544H77.6573V28.616H69.1133V27.544ZM73.3853 29.416C75.4333 29.416 76.8413 30.488 76.8413 32.12C76.8413 33.736 75.4333 34.808 73.3853 34.808C71.3213 34.808 69.9133 33.736 69.9133 32.12C69.9133 30.488 71.3213 29.416 73.3853 29.416ZM73.3853 30.456C72.0733 30.456 71.1773 31.112 71.1773 32.12C71.1773 33.112 72.0733 33.768 73.3853 33.768C74.6813 33.768 75.5773 33.112 75.5773 32.12C75.5773 31.112 74.6813 30.456 73.3853 30.456ZM72.7133 25.784H74.0413V28.104H72.7133V25.784ZM71.2893 38.84H80.9533V39.928H71.2893V38.84ZM71.2893 35.784H72.6173V39.304H71.2893V35.784Z" fill="black"/>
</svg>
